<svg width="16" height="20" viewBox="0 0 16 20" fill="none" xmlns="http://www.w3.org/2000/svg">
<path fill-rule="evenodd" clip-rule="evenodd" d="M10.5293 0H0V1.90332V4.66055V6.46718V12.2992C0 16.5522 3.44776 20 7.70078 20C11.9538 20 15.4016 16.5522 15.4016 12.2992V5.20054H13.5949V12.2992C13.5949 13.8464 12.9988 15.2544 12.0236 16.306V10.4418C12.0236 8.79374 11.334 7.30676 10.2277 6.25365L13.3296 3.57244V4.32253H15.4012V2.16126H15.4016V0.089626H15.4012H13.3296L11.3303 0.0896258V2.16126H11.7942L8.41463 5.08251C7.74398 4.81042 7.0107 4.66055 6.24241 4.66055H1.80663V3.70995V1.90332H10.5293V0ZM1.80663 12.2992V6.46718H6.24241C8.43751 6.46718 10.217 8.24667 10.217 10.4418V17.6308C9.45389 17.9916 8.6009 18.1934 7.70078 18.1934C4.44553 18.1934 1.80663 15.5545 1.80663 12.2992Z" fill="#0673F9"/>
</svg>
